<svg viewBox="0 0 40 40" id="header_icon-user" xmlns="http://www.w3.org/2000/svg">
<path fill="currentColor" d="M13.429 2.734c-.245.127-.429.48-.429.756V15.5a.5.5 0 0 1-.5.5h-1a.5.5 0 0 1-.5-.5V3.49c0-.275-.183-.629-.428-.756C9.368 2.107 7.82 2.023 5.986 2c-1.645.022-2.978.115-3.924 1.062C1.116 4.007 1.023 5.34 1 7v6.014c.022 1.645.114 2.977 1.061 3.924s2.28 1.04 3.925 1.062c2.527.033 3.536.242 4.154.861.476.476.708 1.191.805 2.648.019.275.251.5.527.5h1.057a.537.537 0 0 0 .527-.5c.097-1.457.329-2.174.805-2.648.618-.619 1.627-.828 4.154-.861 1.645-.022 2.978-.115 3.924-1.062.947-.947 1.039-2.279 1.062-3.938V6.986c-.023-1.646-.116-2.979-1.062-3.924-.947-.947-2.28-1.04-3.951-1.062-1.814.023-3.357.107-4.559.734M8.5 13.009h-3a.5.5 0 0 1-.5-.5v-1a.5.5 0 0 1 .5-.5h3a.5.5 0 0 1 .5.5v1a.5.5 0 0 1-.5.5m0-4h-3a.5.5 0 0 1-.5-.5v-1a.5.5 0 0 1 .5-.5h3a.5.5 0 0 1 .5.5v1a.5.5 0 0 1-.5.5m10 4h-3a.5.5 0 0 1-.5-.5v-1a.5.5 0 0 1 .5-.5h3a.5.5 0 0 1 .5.5v1a.5.5 0 0 1-.5.5m0-4h-3a.5.5 0 0 1-.5-.5v-1a.5.5 0 0 1 .5-.5h3a.5.5 0 0 1 .5.5v1a.5.5 0 0 1-.5.5"></path>
</svg>