<svg viewBox="0 0 40 40" id="header_icon-user" xmlns="http://www.w3.org/2000/svg">
<path fill="currentColor" d="M18.36 2.64C16.902 1.182 14.717 1.037 11.985 1c-2.705.037-4.89.182-6.349 1.64C4.18 4.099 4.035 6.283 3.998 9v6.013c.036 2.703.18 4.886 1.64 6.347 1.457 1.458 3.641 1.603 6.346 1.64h.027c2.706-.037 4.891-.182 6.35-1.64 1.081-1.083 1.57-3.579 1.638-8.36V8.986c-.037-2.703-.182-4.887-1.639-6.346M7.051 4.054C7.896 3.209 9.385 3.036 11.985 3c2.627.036 4.117.209 4.96 1.053.636.637.892 1.641.993 3.213A6.47 6.47 0 0 0 13.5 5.5h-3a6.46 6.46 0 0 0-4.44 1.768c.102-1.576.356-2.578.991-3.214m9.896 15.892c-.844.843-2.329 1.017-4.949 1.054-2.619-.037-4.103-.21-4.946-1.053-.638-.638-.892-1.642-.994-3.215a6.47 6.47 0 0 0 4.441 1.769h3c1.645 0 3.146-.62 4.292-1.632-.23 2.101-.597 2.83-.844 3.077M13.5 16.5h-3A4.505 4.505 0 0 1 6.001 12c0-2.481 2.018-4.5 4.5-4.5h3a4.505 4.505 0 0 1 4.498 4.5c0 2.481-2.018 4.5-4.499 4.5m.564-5.206-.227-.076a6.9 6.9 0 0 1-2.376-1.371l-.178-.159c-.534-.473-1.363.006-1.224.706l.049.234a6.9 6.9 0 0 1 0 2.741l-.049.235c-.139.7.69 1.178 1.224.705l.178-.159a6.9 6.9 0 0 1 2.376-1.37l.227-.078c.678-.223.678-1.181 0-1.408"></path>
</svg>