<svg viewBox="0 0 40 40" id="header_icon-user" xmlns="http://www.w3.org/2000/svg">
<path fill="currentColor" d="M13.5 8h-3a.5.5 0 0 0-.5.5v1a.5.5 0 0 0 .5.5h3a.5.5 0 0 0 .5-.5v-1a.5.5 0 0 0-.5-.5m6.742.482-4.008-4.008C14.8 3.072 13.578 1.999 12 1.999S9.199 3.071 7.756 4.481l-4 4A5.96 5.96 0 0 0 2 12.724v1.288c.037 2.702.18 4.886 1.639 6.346 1.455 1.459 3.641 1.604 6.359 1.641h4.018c2.705-.037 4.891-.182 6.346-1.641 1.46-1.46 1.603-3.644 1.639-6.388v-1.246a5.97 5.97 0 0 0-1.76-4.242M14 20h-3.996L10 16.011c.012-1.072.087-1.541.28-1.733.187-.188.657-.264 1.706-.277 1.074.014 1.544.089 1.733.278.192.191.265.646.28 1.722zm6-6.014c-.035 2.625-.207 4.113-1.053 4.961-.598.598-1.528.855-2.947.97v-3.931c-.018-1.297-.094-2.35-.865-3.121-.773-.775-1.826-.849-3.146-.865-1.299.017-2.352.09-3.123.863-.778.776-.852 1.83-.865 3.137v3.917c-1.42-.114-2.35-.372-2.947-.97-.846-.848-1.018-2.336-1.053-4.976v-1.246c0-1.069.416-2.074 1.171-2.829l3.991-3.992C10.64 4.463 11.329 4 12.001 4s1.361.463 2.828 1.896l4 4a3.97 3.97 0 0 1 1.172 2.829z"></path>
</svg>