<svg viewBox="0 0 40 40" id="header_icon-user" xmlns="http://www.w3.org/2000/svg">
<path fill="currentColor" d="M19.976 4.013C18.334 2.379 16.006 2.054 11.988 2c-3.991.053-6.319.379-7.961 2.012s-1.971 3.951-2.025 7.94v.107c.055 3.977.383 6.295 2.025 7.927 1.643 1.634 3.97 1.959 7.96 2.013h.028c3.991-.053 6.318-.379 7.961-2.012 1.645-1.634 1.972-3.952 2.025-7.941v-.107c-.054-3.975-.381-6.293-2.025-7.926M5.436 5.431C6.602 4.273 8.487 4.047 11.989 4c3.529.047 5.414.273 6.578 1.431.416.414.709.925.92 1.569h-.498c-4.408.059-6.975.418-8.771 2.216a6 6 0 0 0-1.211 1.785L8.97 11H4.024c.08-2.888.365-4.528 1.413-5.569M4.024 13H8.39c-.264 1.352-.362 2.974-.391 5v1.726c-1.138-.204-1.954-.55-2.564-1.157-1.042-1.035-1.33-2.662-1.413-5.569M12 20a49 49 0 0 1-2-.064v-1.922c.029-2.144.126-3.733.412-4.961 1.502.095 2.237.327 2.722.81.62.619.832 1.627.866 4.138v1.936c-.604.032-1.26.053-2 .063m6.564-1.431c-.61.606-1.427.954-2.564 1.157v-1.74c-.032-2.351-.16-4.252-1.455-5.542-.852-.848-1.975-1.188-3.318-1.333a4 4 0 0 1 .403-.483c1.318-1.319 3.43-1.576 7.37-1.629h.86c.084.851.124 1.84.14 3.033-.047 3.51-.273 5.383-1.436 6.537"></path>
</svg>