<svg viewBox="0 0 40 40" id="header_icon-user" xmlns="http://www.w3.org/2000/svg">
<path fill="currentColor" d="M22 8.25A6.257 6.257 0 0 0 15.75 2c-1.371 0-2.673.44-3.75 1.254A6.2 6.2 0 0 0 8.25 2 6.257 6.257 0 0 0 2 8.25c0 1.372.439 2.673 1.254 3.75A6.2 6.2 0 0 0 2 15.75 6.257 6.257 0 0 0 8.25 22c1.371 0 2.673-.44 3.75-1.254A6.2 6.2 0 0 0 15.75 22 6.257 6.257 0 0 0 22 15.75 6.18 6.18 0 0 0 20.746 12 6.18 6.18 0 0 0 22 8.25m-3.282 4.465A4.22 4.22 0 0 1 20 15.75 4.255 4.255 0 0 1 15.75 20a4.22 4.22 0 0 1-3.035-1.282L12 17.987l-.715.731A4.22 4.22 0 0 1 8.25 20 4.255 4.255 0 0 1 4 15.75c0-1.148.455-2.227 1.282-3.035L6.013 12l-.731-.715A4.22 4.22 0 0 1 4 8.25 4.255 4.255 0 0 1 8.25 4c1.148 0 2.227.456 3.035 1.282l.715.731.715-.731A4.22 4.22 0 0 1 15.75 4 4.255 4.255 0 0 1 20 8.25a4.2 4.2 0 0 1-1.282 3.035l-.732.715zm-7.594.705-1.152-2a.5.5 0 0 0-.683-.183l-.867.499a.5.5 0 0 0-.183.683l1.593 2.764c.297.507.81.816 1.346.816.599-.02 1.092-.36 1.366-.913q.19-.384.368-.769c.32-.685.624-1.332 1.032-1.905a11 11 0 0 1 2.19-2.289.516.516 0 0 0 .107-.706l-.586-.811a.487.487 0 0 0-.693-.106 13 13 0 0 0-2.648 2.752c-.501.706-.852 1.449-1.19 2.168"></path>
</svg>